<svg xmlns="http://www.w3.org/2000/svg" width="2700" height="2025" viewBox="0 0 2700 2025"><style>
.h1{font-family:Arial Black,Arial,sans-serif;font-weight:900;letter-spacing:-5px;fill:#fff}
.h1p{font-family:Arial Black,Arial,sans-serif;font-weight:900;letter-spacing:-5px;fill:#a855f7}
.h2{font-family:Arial,Helvetica,sans-serif;font-weight:900;fill:#fff}
.purple{font-family:Arial,Helvetica,sans-serif;font-weight:900;fill:#a855f7}
.body{font-family:Arial,Helvetica,sans-serif;font-weight:700;fill:#e5e7eb}
.muted{font-family:Arial,Helvetica,sans-serif;font-weight:700;fill:#94a3b8}
.yellow{font-family:Arial Black,Arial,sans-serif;font-weight:900;fill:#facc15}
.dark{font-family:Arial Black,Arial,sans-serif;font-weight:900;fill:#0b1020}
.small{font-family:Arial,Helvetica,sans-serif;font-weight:800;fill:#f8fafc}
</style><defs>
    <linearGradient id="bg" x1="0" y1="0" x2="1" y2="1"><stop offset="0%" stop-color="#050816"/><stop offset="52%" stop-color="#111827"/><stop offset="100%" stop-color="#220844"/></linearGradient>
    <radialGradient id="glow" cx="50%" cy="50%" r="50%"><stop offset="0%" stop-color="#a855f7" stop-opacity="0.75"/><stop offset="100%" stop-color="#a855f7" stop-opacity="0"/></radialGradient>
    <linearGradient id="panel" x1="0" y1="0" x2="1" y2="1"><stop offset="0%" stop-color="#1f2937"/><stop offset="100%" stop-color="#060914"/></linearGradient>
    <linearGradient id="paper" x1="0" y1="0" x2="1" y2="1"><stop offset="0%" stop-color="#ffffff"/><stop offset="100%" stop-color="#e5e7eb"/></linearGradient>
    <filter id="shadow" x="-30%" y="-30%" width="170%" height="170%"><feDropShadow dx="0" dy="28" stdDeviation="28" flood-color="#000" flood-opacity="0.50"/></filter>
    <filter id="neon" x="-40%" y="-40%" width="180%" height="180%"><feDropShadow dx="0" dy="0" stdDeviation="10" flood-color="#a855f7" flood-opacity="0.85"/></filter>
    <filter id="blur"><feGaussianBlur stdDeviation="55"/></filter>
    </defs><rect width="100%" height="100%" fill="url(#bg)"/>
    <circle cx="2106.0" cy="567.0" r="594.0" fill="url(#glow)" filter="url(#blur)" opacity="0.9"/>
    <circle cx="594.0" cy="1782.0" r="486.0" fill="#a855f7" filter="url(#blur)" opacity="0.22"/>
    <path d="M0,1741.5 C810.0,1518.75 1485.0000000000002,1923.75 2700,1579.5 L2700,2025 L0,2025 Z" fill="#0b1020" opacity="0.78"/>
    <rect x="0" y="0" width="2700" height="92" fill="#020617"/><text x="90" y="60" class="small" font-size="34">DIGITAL DOWNLOAD  |  LAUNCH OFFER $14.99</text><text x="95" y="295" class="h1p" font-size="150">AI</text><text x="290" y="295" class="h1" font-size="150"> CREATOR KIT</text><text x="100" y="430" class="h2" font-size="64">Launch Your Content Brand <tspan fill="#a855f7">Faster</tspan></text><text x="100" y="520" class="body" font-size="39">Everything You Need to Create, Grow &amp; Monetize Your Faceless Content Brand</text><rect x="95" y="650" width="990" height="590" rx="34" fill="#050816" stroke="#312e81" stroke-width="3" opacity="0.96" filter="url(#shadow)"/><text x="155" y="742" class="purple" font-size="42">✓</text><text x="210" y="742" class="body" font-size="42">100 AI Prompts</text><text x="155" y="814" class="purple" font-size="42">✓</text><text x="210" y="814" class="body" font-size="42">50 X Templates</text><text x="155" y="886" class="purple" font-size="42">✓</text><text x="210" y="886" class="body" font-size="42">30 YouTube Hooks</text><text x="155" y="958" class="purple" font-size="42">✓</text><text x="210" y="958" class="body" font-size="42">30 Instagram Captions</text><text x="155" y="1030" class="purple" font-size="42">✓</text><text x="210" y="1030" class="body" font-size="42">Workbook &amp; Planner</text><rect x="143" y="1067" width="894" height="68" rx="20" fill="#2e1065" stroke="#a855f7" stroke-width="2"/><text x="171" y="1112" class="purple" font-size="36">BONUS: Notion Dashboard</text><g filter="url(#shadow)">
    <rect x="1350" y="360" width="470" height="650" rx="24" fill="url(#paper)"/>
    <rect x="1378" y="388" width="414" height="594" rx="20" fill="#111827"/>
    <circle cx="1688.4" cy="503.0" r="94.0" fill="#a855f7" opacity="0.55" filter="url(#neon)"/>
    <text x="1406" y="490" class="h1p" font-size="54">AI</text>
    <text x="1406" y="555" class="h2" font-size="54">CREATOR</text>
    <text x="1406" y="620" class="h2" font-size="54">KIT</text>
    <text x="1406" y="695" class="body" font-size="26">Workbook</text>
    <rect x="1406" y="870" width="358" height="54" rx="27" fill="#a855f7"/>
    <text x="1442" y="905" class="small" font-size="24">DIGITAL DOWNLOAD</text>
    </g><g filter="url(#shadow)">
    <rect x="1950" y="430" width="440" height="780" rx="58" fill="#020617" stroke="#475569" stroke-width="8"/>
    <rect x="1982" y="500" width="376" height="660" rx="34" fill="#0f172a"/>
    <text x="2008" y="575" class="small" font-size="28">Creator Dashboard</text>
    <rect x="2008" y="620" width="324" height="70" rx="18" fill="#2e1065"/>
    <text x="2032" y="665" class="purple" font-size="28">100 AI Prompts</text>
    <rect x="2008" y="722" width="324" height="45" rx="14" fill="#1e293b"/>
    <rect x="2008" y="792" width="270" height="45" rx="14" fill="#1e293b"/>
    <rect x="2008" y="862" width="305" height="45" rx="14" fill="#1e293b"/>
    <rect x="2008" y="970" width="324" height="120" rx="22" fill="#a855f7" opacity="0.86"/>
    <text x="2038" y="1042" class="small" font-size="34">Plan → Post</text>
    </g><g filter="url(#shadow)"><rect x="1210" y="1060" width="520" height="155" rx="26" fill="#111827" stroke="#a855f7" stroke-width="3"/>
    <text x="1244" y="1120" class="small" font-size="30">Prompt Pack</text>
    <text x="1244" y="1168" class="muted" font-size="22">100 copy-paste AI prompts</text></g><g filter="url(#shadow)"><rect x="1780" y="1240" width="510" height="155" rx="26" fill="#111827" stroke="#a855f7" stroke-width="3"/>
    <text x="1814" y="1300" class="small" font-size="30">Creator Planner</text>
    <text x="1814" y="1348" class="muted" font-size="22">workflow + content system</text></g><rect x="0" y="1870" width="2700" height="155" fill="#020617"/>
    <rect x="90" y="1907" width="420" height="82" rx="41" fill="#facc15"/>
    <text x="140" y="1961" class="dark" font-size="36">50% OFF TODAY</text>
    <text x="650" y="1965" class="yellow" font-size="72">$14.99</text>
    <text x="940" y="1961" class="muted" font-size="38">$29.99</text>
    <line x1="936" y1="1949" x2="1080" y2="1929" stroke="#94a3b8" stroke-width="5"/>
    <circle cx="2510" cy="1947" r="55" fill="#172554" stroke="#a855f7" stroke-width="4"/>
    <text x="2462" y="1957" class="small" font-size="26">INSTANT</text></svg>