<svg xmlns="http://www.w3.org/2000/svg" width="2700" height="2025" viewBox="0 0 2700 2025"><style>
.h1{font-family:Arial Black,Arial,sans-serif;font-weight:900;letter-spacing:-5px;fill:#fff}
.h1p{font-family:Arial Black,Arial,sans-serif;font-weight:900;letter-spacing:-5px;fill:#a855f7}
.h2{font-family:Arial,Helvetica,sans-serif;font-weight:900;fill:#fff}
.purple{font-family:Arial,Helvetica,sans-serif;font-weight:900;fill:#a855f7}
.body{font-family:Arial,Helvetica,sans-serif;font-weight:700;fill:#e5e7eb}
.muted{font-family:Arial,Helvetica,sans-serif;font-weight:700;fill:#94a3b8}
.yellow{font-family:Arial Black,Arial,sans-serif;font-weight:900;fill:#facc15}
.dark{font-family:Arial Black,Arial,sans-serif;font-weight:900;fill:#0b1020}
.small{font-family:Arial,Helvetica,sans-serif;font-weight:800;fill:#f8fafc}
</style><defs>
    <linearGradient id="bg" x1="0" y1="0" x2="1" y2="1"><stop offset="0%" stop-color="#050816"/><stop offset="52%" stop-color="#111827"/><stop offset="100%" stop-color="#220844"/></linearGradient>
    <radialGradient id="glow" cx="50%" cy="50%" r="50%"><stop offset="0%" stop-color="#a855f7" stop-opacity="0.75"/><stop offset="100%" stop-color="#a855f7" stop-opacity="0"/></radialGradient>
    <linearGradient id="panel" x1="0" y1="0" x2="1" y2="1"><stop offset="0%" stop-color="#1f2937"/><stop offset="100%" stop-color="#060914"/></linearGradient>
    <linearGradient id="paper" x1="0" y1="0" x2="1" y2="1"><stop offset="0%" stop-color="#ffffff"/><stop offset="100%" stop-color="#e5e7eb"/></linearGradient>
    <filter id="shadow" x="-30%" y="-30%" width="170%" height="170%"><feDropShadow dx="0" dy="28" stdDeviation="28" flood-color="#000" flood-opacity="0.50"/></filter>
    <filter id="neon" x="-40%" y="-40%" width="180%" height="180%"><feDropShadow dx="0" dy="0" stdDeviation="10" flood-color="#a855f7" flood-opacity="0.85"/></filter>
    <filter id="blur"><feGaussianBlur stdDeviation="55"/></filter>
    </defs><rect width="100%" height="100%" fill="url(#bg)"/>
    <circle cx="2106.0" cy="567.0" r="594.0" fill="url(#glow)" filter="url(#blur)" opacity="0.9"/>
    <circle cx="594.0" cy="1782.0" r="486.0" fill="#a855f7" filter="url(#blur)" opacity="0.22"/>
    <path d="M0,1741.5 C810.0,1518.75 1485.0000000000002,1923.75 2700,1579.5 L2700,2025 L0,2025 Z" fill="#0b1020" opacity="0.78"/>
    <rect x="0" y="0" width="2700" height="92" fill="#020617"/><text x="90" y="60" class="small" font-size="34">WHAT IS INSIDE THE AI CREATOR KIT</text><text x="95" y="285" class="h1" font-size="118">Everything Included</text><text x="100" y="390" class="body" font-size="42">Five ready-to-use files for content creators and AI users</text><g filter="url(#shadow)">
    <rect x="120" y="560" width="410" height="530" rx="24" fill="url(#paper)"/>
    <rect x="148" y="588" width="354" height="474" rx="20" fill="#111827"/>
    <circle cx="415.2" cy="676.6" r="82.0" fill="#a855f7" opacity="0.55" filter="url(#neon)"/>
    <text x="176" y="690" class="h1p" font-size="54">AI</text>
    <text x="176" y="755" class="h2" font-size="54">CREATOR</text>
    <text x="176" y="820" class="h2" font-size="54">KIT</text>
    <text x="176" y="895" class="body" font-size="26">plan your brand</text>
    <rect x="176" y="950" width="298" height="54" rx="27" fill="#a855f7"/>
    <text x="212" y="985" class="small" font-size="24">DIGITAL DOWNLOAD</text>
    </g><g filter="url(#shadow)">
    <rect x="620" y="560" width="410" height="530" rx="24" fill="url(#paper)"/>
    <rect x="648" y="588" width="354" height="474" rx="20" fill="#111827"/>
    <circle cx="915.2" cy="676.6" r="82.0" fill="#a855f7" opacity="0.55" filter="url(#neon)"/>
    <text x="676" y="690" class="h1p" font-size="54">AI</text>
    <text x="676" y="755" class="h2" font-size="54">CREATOR</text>
    <text x="676" y="820" class="h2" font-size="54">KIT</text>
    <text x="676" y="895" class="body" font-size="26">AI content</text>
    <rect x="676" y="950" width="298" height="54" rx="27" fill="#a855f7"/>
    <text x="712" y="985" class="small" font-size="24">DIGITAL DOWNLOAD</text>
    </g><g filter="url(#shadow)">
    <rect x="1120" y="560" width="410" height="530" rx="24" fill="url(#paper)"/>
    <rect x="1148" y="588" width="354" height="474" rx="20" fill="#111827"/>
    <circle cx="1415.2" cy="676.6" r="82.0" fill="#a855f7" opacity="0.55" filter="url(#neon)"/>
    <text x="1176" y="690" class="h1p" font-size="54">AI</text>
    <text x="1176" y="755" class="h2" font-size="54">CREATOR</text>
    <text x="1176" y="820" class="h2" font-size="54">KIT</text>
    <text x="1176" y="895" class="body" font-size="26">50 templates</text>
    <rect x="1176" y="950" width="298" height="54" rx="27" fill="#a855f7"/>
    <text x="1212" y="985" class="small" font-size="24">DIGITAL DOWNLOAD</text>
    </g><g filter="url(#shadow)">
    <rect x="1620" y="560" width="410" height="530" rx="24" fill="url(#paper)"/>
    <rect x="1648" y="588" width="354" height="474" rx="20" fill="#111827"/>
    <circle cx="1915.2" cy="676.6" r="82.0" fill="#a855f7" opacity="0.55" filter="url(#neon)"/>
    <text x="1676" y="690" class="h1p" font-size="54">AI</text>
    <text x="1676" y="755" class="h2" font-size="54">CREATOR</text>
    <text x="1676" y="820" class="h2" font-size="54">KIT</text>
    <text x="1676" y="895" class="body" font-size="26">30 video hooks</text>
    <rect x="1676" y="950" width="298" height="54" rx="27" fill="#a855f7"/>
    <text x="1712" y="985" class="small" font-size="24">DIGITAL DOWNLOAD</text>
    </g><g filter="url(#shadow)">
    <rect x="2120" y="560" width="410" height="530" rx="24" fill="url(#paper)"/>
    <rect x="2148" y="588" width="354" height="474" rx="20" fill="#111827"/>
    <circle cx="2415.2" cy="676.6" r="82.0" fill="#a855f7" opacity="0.55" filter="url(#neon)"/>
    <text x="2176" y="690" class="h1p" font-size="54">AI</text>
    <text x="2176" y="755" class="h2" font-size="54">CREATOR</text>
    <text x="2176" y="820" class="h2" font-size="54">KIT</text>
    <text x="2176" y="895" class="body" font-size="26">30 captions</text>
    <rect x="2176" y="950" width="298" height="54" rx="27" fill="#a855f7"/>
    <text x="2212" y="985" class="small" font-size="24">DIGITAL DOWNLOAD</text>
    </g><rect x="250" y="1260" width="2200" height="350" rx="34" fill="#050816" stroke="#312e81" stroke-width="3" opacity="0.96" filter="url(#shadow)"/><text x="310" y="1352" class="purple" font-size="42">✓</text><text x="365" y="1352" class="body" font-size="42">Workbook + planner pages</text><text x="310" y="1424" class="purple" font-size="42">✓</text><text x="365" y="1424" class="body" font-size="42">100 prompts + templates + hooks + captions</text><text x="310" y="1496" class="purple" font-size="42">✓</text><text x="365" y="1496" class="body" font-size="42">Built for creators, freelancers, coaches and AI users</text><rect x="0" y="1870" width="2700" height="155" fill="#020617"/>
    <rect x="90" y="1907" width="420" height="82" rx="41" fill="#facc15"/>
    <text x="140" y="1961" class="dark" font-size="36">50% OFF TODAY</text>
    <text x="650" y="1965" class="yellow" font-size="72">$14.99</text>
    <text x="940" y="1961" class="muted" font-size="38">$29.99</text>
    <line x1="936" y1="1949" x2="1080" y2="1929" stroke="#94a3b8" stroke-width="5"/>
    <circle cx="2510" cy="1947" r="55" fill="#172554" stroke="#a855f7" stroke-width="4"/>
    <text x="2462" y="1957" class="small" font-size="26">INSTANT</text></svg>