<svg xmlns="http://www.w3.org/2000/svg" width="3000" height="2400" viewBox="0 0 3000 2400">
    <style>
.title{font-family:Arial,Helvetica,sans-serif;font-weight:900;letter-spacing:-2px;fill:#fff}
.sub{font-family:Arial,Helvetica,sans-serif;font-weight:700;fill:#f8fafc}
.small{font-family:Arial,Helvetica,sans-serif;font-weight:600;fill:#cbd5e1}
.dark{font-family:Arial,Helvetica,sans-serif;font-weight:900;fill:#111827}
.muted{font-family:Arial,Helvetica,sans-serif;font-weight:700;fill:#475569}
.tag{font-family:Arial,Helvetica,sans-serif;font-weight:800;fill:#0f172a}
</style>
    <defs>
      <linearGradient id="bg" x1="0" y1="0" x2="1" y2="1">
        <stop offset="0%" stop-color="#080816"/>
        <stop offset="45%" stop-color="#4c1d95"/>
        <stop offset="100%" stop-color="#fb923c"/>
      </linearGradient>
      <linearGradient id="card" x1="0" y1="0" x2="1" y2="1">
        <stop offset="0%" stop-color="#ffffff"/>
        <stop offset="100%" stop-color="#f8fafc"/>
      </linearGradient>
      <filter id="shadow" x="-20%" y="-20%" width="140%" height="140%">
        <feDropShadow dx="0" dy="28" stdDeviation="28" flood-color="#000" flood-opacity="0.35"/>
      </filter>
      <filter id="soft" x="-30%" y="-30%" width="160%" height="160%">
        <feGaussianBlur stdDeviation="45"/>
      </filter>
    </defs>
    
    
<rect width="100%" height="100%" fill="#f8fafc"/>
<rect x="0" y="0" width="3000" height="410" fill="#111827"/>
<text x="150" y="170" class="title" font-size="110">What’s Inside</text>
<text x="150" y="280" class="small" font-size="46">A complete beginner system, not just random prompts</text>

    <g filter="url(#shadow)">
      <rect x="170" y="620" width="480" height="610" rx="34" fill="url(#card)"/>
      <rect x="170" y="620" width="480" height="160" rx="34" fill="#7c3aed"/>
      <rect x="170" y="740" width="480" height="70" fill="#7c3aed"/>
      <text x="218" y="716" font-family="Arial" font-size="42" font-weight="900" fill="#fff">PDF</text>
      <text x="218" y="865" font-family="Arial" font-size="52" font-weight="900" fill="#111827">Workbook</text>
      <rect x="218" y="930" width="384" height="18" rx="9" fill="#e5e7eb"/>
      <rect x="218" y="975" width="300" height="18" rx="9" fill="#e5e7eb"/>
      <rect x="218" y="1020" width="345" height="18" rx="9" fill="#e5e7eb"/>
      <circle cx="540" cy="1130" r="50" fill="#7c3aed" opacity="0.9"/>
    </g>

    <g filter="url(#shadow)">
      <rect x="720" y="620" width="480" height="610" rx="34" fill="url(#card)"/>
      <rect x="720" y="620" width="480" height="160" rx="34" fill="#f97316"/>
      <rect x="720" y="740" width="480" height="70" fill="#f97316"/>
      <text x="768" y="716" font-family="Arial" font-size="42" font-weight="900" fill="#fff">PDF</text>
      <text x="768" y="865" font-family="Arial" font-size="52" font-weight="900" fill="#111827">Prompts</text>
      <rect x="768" y="930" width="384" height="18" rx="9" fill="#e5e7eb"/>
      <rect x="768" y="975" width="300" height="18" rx="9" fill="#e5e7eb"/>
      <rect x="768" y="1020" width="345" height="18" rx="9" fill="#e5e7eb"/>
      <circle cx="1090" cy="1130" r="50" fill="#f97316" opacity="0.9"/>
    </g>

    <g filter="url(#shadow)">
      <rect x="1270" y="620" width="480" height="610" rx="34" fill="url(#card)"/>
      <rect x="1270" y="620" width="480" height="160" rx="34" fill="#0ea5e9"/>
      <rect x="1270" y="740" width="480" height="70" fill="#0ea5e9"/>
      <text x="1318" y="716" font-family="Arial" font-size="42" font-weight="900" fill="#fff">PDF</text>
      <text x="1318" y="865" font-family="Arial" font-size="52" font-weight="900" fill="#111827">X Posts</text>
      <rect x="1318" y="930" width="384" height="18" rx="9" fill="#e5e7eb"/>
      <rect x="1318" y="975" width="300" height="18" rx="9" fill="#e5e7eb"/>
      <rect x="1318" y="1020" width="345" height="18" rx="9" fill="#e5e7eb"/>
      <circle cx="1640" cy="1130" r="50" fill="#0ea5e9" opacity="0.9"/>
    </g>

    <g filter="url(#shadow)">
      <rect x="1820" y="620" width="480" height="610" rx="34" fill="url(#card)"/>
      <rect x="1820" y="620" width="480" height="160" rx="34" fill="#14b8a6"/>
      <rect x="1820" y="740" width="480" height="70" fill="#14b8a6"/>
      <text x="1868" y="716" font-family="Arial" font-size="42" font-weight="900" fill="#fff">PDF</text>
      <text x="1868" y="865" font-family="Arial" font-size="52" font-weight="900" fill="#111827">Hooks</text>
      <rect x="1868" y="930" width="384" height="18" rx="9" fill="#e5e7eb"/>
      <rect x="1868" y="975" width="300" height="18" rx="9" fill="#e5e7eb"/>
      <rect x="1868" y="1020" width="345" height="18" rx="9" fill="#e5e7eb"/>
      <circle cx="2190" cy="1130" r="50" fill="#14b8a6" opacity="0.9"/>
    </g>

    <g filter="url(#shadow)">
      <rect x="2370" y="620" width="480" height="610" rx="34" fill="url(#card)"/>
      <rect x="2370" y="620" width="480" height="160" rx="34" fill="#ec4899"/>
      <rect x="2370" y="740" width="480" height="70" fill="#ec4899"/>
      <text x="2418" y="716" font-family="Arial" font-size="42" font-weight="900" fill="#fff">PDF</text>
      <text x="2418" y="865" font-family="Arial" font-size="52" font-weight="900" fill="#111827">Captions</text>
      <rect x="2418" y="930" width="384" height="18" rx="9" fill="#e5e7eb"/>
      <rect x="2418" y="975" width="300" height="18" rx="9" fill="#e5e7eb"/>
      <rect x="2418" y="1020" width="345" height="18" rx="9" fill="#e5e7eb"/>
      <circle cx="2740" cy="1130" r="50" fill="#ec4899" opacity="0.9"/>
    </g>
<text x="150" y="1510" class="dark" font-size="74">5 PDF files included</text>
<text x="150" y="1640" class="muted" font-size="54">Workbook + 100 Prompts + 50 X Templates</text>
<text x="150" y="1725" class="muted" font-size="54">+ 30 YouTube Hooks + 30 Instagram Captions</text>
<rect x="150" y="1910" width="1250" height="130" rx="65" fill="#111827"/>
<text x="240" y="1996" class="sub" font-size="52">INSTANT DIGITAL DOWNLOAD</text>

    </svg>