<svg xmlns="http://www.w3.org/2000/svg" width="2700" height="2025" viewBox="0 0 2700 2025"><style>
.h1{font-family:Arial Black,Arial,sans-serif;font-weight:900;letter-spacing:-5px;fill:#fff}
.ai{font-family:Arial Black,Arial,sans-serif;font-weight:900;letter-spacing:-5px;fill:#b45cff}
.h2{font-family:Arial Black,Arial,sans-serif;font-weight:900;fill:#fff}
.body{font-family:Arial,Helvetica,sans-serif;font-weight:800;fill:#eef2ff}
.muted{font-family:Arial,Helvetica,sans-serif;font-weight:700;fill:#a5b4fc}
.purple{font-family:Arial Black,Arial,sans-serif;font-weight:900;fill:#b45cff}
.orange{font-family:Arial Black,Arial,sans-serif;font-weight:900;fill:#ffb703}
.dark{font-family:Arial Black,Arial,sans-serif;font-weight:900;fill:#080816}
.small{font-family:Arial,Helvetica,sans-serif;font-weight:900;fill:#fff}
</style><defs>
      <linearGradient id="bg" x1="0" y1="0" x2="1" y2="1"><stop offset="0" stop-color="#03030b"/><stop offset="0.42" stop-color="#0b1025"/><stop offset="1" stop-color="#2b075e"/></linearGradient>
      <radialGradient id="violet" cx="50%" cy="50%" r="50%"><stop offset="0" stop-color="#b45cff" stop-opacity=".9"/><stop offset="1" stop-color="#b45cff" stop-opacity="0"/></radialGradient>
      <linearGradient id="sunset" x1="0" y1="0" x2="0" y2="1"><stop offset="0" stop-color="#7c3aed"/><stop offset=".55" stop-color="#f97316"/><stop offset="1" stop-color="#111827"/></linearGradient>
      <linearGradient id="panel" x1="0" y1="0" x2="1" y2="1"><stop offset="0" stop-color="#17122d"/><stop offset="1" stop-color="#050713"/></linearGradient>
      <filter id="shadow" x="-30%" y="-30%" width="170%" height="170%"><feDropShadow dx="0" dy="24" stdDeviation="26" flood-color="#000" flood-opacity=".58"/></filter>
      <filter id="glow" x="-40%" y="-40%" width="180%" height="180%"><feGaussianBlur stdDeviation="42"/></filter>
      <filter id="neon" x="-30%" y="-30%" width="160%" height="160%"><feDropShadow dx="0" dy="0" stdDeviation="10" flood-color="#b45cff" flood-opacity=".9"/></filter>
    </defs><rect width="100%" height="100%" fill="url(#bg)"/>
      <circle cx="1998.0" cy="506.25" r="702.0" fill="url(#violet)" filter="url(#glow)" opacity=".88"/>
      <circle cx="351.0" cy="1680.75" r="594.0" fill="#7c3aed" filter="url(#glow)" opacity=".32"/>
      <path d="M0,1741.5 C621.0,1539.0 1485.0000000000002,1944.0 2700,1579.5 L2700,2025 L0,2025Z" fill="#050713" opacity=".78"/><rect x="70" y="54" width="720" height="68" rx="34" fill="#0a0a18" stroke="#7c3aed" stroke-width="2"/>
      <text x="108" y="99" class="small" font-size="28">DIGITAL DOWNLOAD  |  LAUNCH OFFER </text>
      <text x="665" y="99" class="orange" font-size="30">$14.99</text><text x="92" y="285" class="ai" font-size="112">VALUE STACK</text><text x="96" y="380" class="body" font-size="42">Make the offer feel bigger than a simple PDF</text><g filter="url(#shadow)">
      <rect x="150" y="540" width="390" height="520" rx="22" fill="#f8fafc"/>
      <rect x="176" y="566" width="338" height="468" rx="18" fill="#0b1025"/>
      <rect x="200" y="730" width="290" height="220" rx="20" fill="url(#sunset)"/>
      <circle cx="411.3" cy="810" r="62" fill="#facc15" opacity=".7"/>
      <circle cx="352.8" cy="870" r="54" fill="#050713"/><rect x="337.2" y="915" width="90" height="135" rx="38" fill="#050713"/>
      <text x="198" y="630" class="ai" font-size="42">AI</text><text x="270" y="630" class="small" font-size="40">CREATOR KIT</text>
      <text x="198" y="680" class="muted" font-size="22">100 prompts</text>
      <rect x="200" y="978" width="290" height="48" rx="24" fill="#b45cff"/>
      <text x="246" y="1010" class="small" font-size="22">INSTANT DOWNLOAD</text>
    </g><g filter="url(#shadow)">
      <rect x="650" y="540" width="390" height="520" rx="22" fill="#f8fafc"/>
      <rect x="676" y="566" width="338" height="468" rx="18" fill="#0b1025"/>
      <rect x="700" y="730" width="290" height="220" rx="20" fill="url(#sunset)"/>
      <circle cx="911.3" cy="810" r="62" fill="#facc15" opacity=".7"/>
      <circle cx="852.8" cy="870" r="54" fill="#050713"/><rect x="837.2" y="915" width="90" height="135" rx="38" fill="#050713"/>
      <text x="698" y="630" class="ai" font-size="42">AI</text><text x="770" y="630" class="small" font-size="40">CREATOR KIT</text>
      <text x="698" y="680" class="muted" font-size="22">50 posts</text>
      <rect x="700" y="978" width="290" height="48" rx="24" fill="#b45cff"/>
      <text x="746" y="1010" class="small" font-size="22">INSTANT DOWNLOAD</text>
    </g><g filter="url(#shadow)">
      <rect x="1150" y="540" width="390" height="520" rx="22" fill="#f8fafc"/>
      <rect x="1176" y="566" width="338" height="468" rx="18" fill="#0b1025"/>
      <rect x="1200" y="730" width="290" height="220" rx="20" fill="url(#sunset)"/>
      <circle cx="1411.3" cy="810" r="62" fill="#facc15" opacity=".7"/>
      <circle cx="1352.8" cy="870" r="54" fill="#050713"/><rect x="1337.2" y="915" width="90" height="135" rx="38" fill="#050713"/>
      <text x="1198" y="630" class="ai" font-size="42">AI</text><text x="1270" y="630" class="small" font-size="40">CREATOR KIT</text>
      <text x="1198" y="680" class="muted" font-size="22">30 ideas</text>
      <rect x="1200" y="978" width="290" height="48" rx="24" fill="#b45cff"/>
      <text x="1246" y="1010" class="small" font-size="22">INSTANT DOWNLOAD</text>
    </g><g filter="url(#shadow)">
      <rect x="1650" y="540" width="390" height="520" rx="22" fill="#f8fafc"/>
      <rect x="1676" y="566" width="338" height="468" rx="18" fill="#0b1025"/>
      <rect x="1700" y="730" width="290" height="220" rx="20" fill="url(#sunset)"/>
      <circle cx="1911.3" cy="810" r="62" fill="#facc15" opacity=".7"/>
      <circle cx="1852.8" cy="870" r="54" fill="#050713"/><rect x="1837.2" y="915" width="90" height="135" rx="38" fill="#050713"/>
      <text x="1698" y="630" class="ai" font-size="42">AI</text><text x="1770" y="630" class="small" font-size="40">CREATOR KIT</text>
      <text x="1698" y="680" class="muted" font-size="22">30 captions</text>
      <rect x="1700" y="978" width="290" height="48" rx="24" fill="#b45cff"/>
      <text x="1746" y="1010" class="small" font-size="22">INSTANT DOWNLOAD</text>
    </g><g filter="url(#shadow)">
      <rect x="2150" y="540" width="390" height="520" rx="22" fill="#f8fafc"/>
      <rect x="2176" y="566" width="338" height="468" rx="18" fill="#0b1025"/>
      <rect x="2200" y="730" width="290" height="220" rx="20" fill="url(#sunset)"/>
      <circle cx="2411.3" cy="810" r="62" fill="#facc15" opacity=".7"/>
      <circle cx="2352.8" cy="870" r="54" fill="#050713"/><rect x="2337.2" y="915" width="90" height="135" rx="38" fill="#050713"/>
      <text x="2198" y="630" class="ai" font-size="42">AI</text><text x="2270" y="630" class="small" font-size="40">CREATOR KIT</text>
      <text x="2198" y="680" class="muted" font-size="22">Planner</text>
      <rect x="2200" y="978" width="290" height="48" rx="24" fill="#b45cff"/>
      <text x="2246" y="1010" class="small" font-size="22">INSTANT DOWNLOAD</text>
    </g><g filter="url(#shadow)"><rect x="370" y="1210" width="1960" height="230" rx="24" fill="url(#panel)" stroke="#facc15" stroke-width="3"/><text x="398" y="1265" class="small" font-size="44">BONUS: Notion Dashboard Style Planner</text><text x="398" y="1310" class="muted" font-size="24">Organize content ideas, content calendar, publishing focus and experiment tracking.</text></g><rect x="120" y="1530" width="350" height="95" rx="28" fill="#0b1025" stroke="#4c1d95" stroke-width="2"/><text x="145" y="1588" class="small" font-size="27">✓ Instant Download</text><rect x="535" y="1530" width="350" height="95" rx="28" fill="#0b1025" stroke="#4c1d95" stroke-width="2"/><text x="560" y="1588" class="small" font-size="27">✓ Beginner Friendly</text><rect x="950" y="1530" width="350" height="95" rx="28" fill="#0b1025" stroke="#4c1d95" stroke-width="2"/><text x="975" y="1588" class="small" font-size="27">✓ Lifetime Access</text><rect x="1365" y="1530" width="350" height="95" rx="28" fill="#0b1025" stroke="#4c1d95" stroke-width="2"/><text x="1390" y="1588" class="small" font-size="27">✓ Commercial Use</text><rect x="1780" y="1530" width="350" height="95" rx="28" fill="#0b1025" stroke="#4c1d95" stroke-width="2"/><text x="1805" y="1588" class="small" font-size="27">✓ Works with AI Tools</text><rect x="2195" y="1530" width="350" height="95" rx="28" fill="#0b1025" stroke="#4c1d95" stroke-width="2"/><text x="2220" y="1588" class="small" font-size="27">✓ Bonus Templates</text><rect x="0" y="1855" width="2700" height="170" fill="#070716"/>
      <rect x="88" y="1893" width="420" height="88" rx="44" fill="#b45cff" filter="url(#neon)"/><text x="142" y="1951" class="small" font-size="38">50% OFF TODAY</text>
      <text x="650" y="1963" class="orange" font-size="76">$14.99</text><text x="940" y="1957" class="muted" font-size="38">$29.99</text><line x1="936" y1="1943" x2="1084" y2="1921" stroke="#a5b4fc" stroke-width="5"/>
      <rect x="2080" y="1899" width="505" height="78" rx="39" fill="#0b1025" stroke="#facc15" stroke-width="3"/><text x="2118" y="1950" class="orange" font-size="30">7-DAY MONEY BACK GUARANTEE ★★★★★</text></svg>