<svg xmlns="http://www.w3.org/2000/svg" width="2700" height="2025" viewBox="0 0 2700 2025"><style>
.h1{font-family:Arial Black,Arial,sans-serif;font-weight:900;letter-spacing:-5px;fill:#fff}
.ai{font-family:Arial Black,Arial,sans-serif;font-weight:900;letter-spacing:-5px;fill:#b45cff}
.h2{font-family:Arial Black,Arial,sans-serif;font-weight:900;fill:#fff}
.body{font-family:Arial,Helvetica,sans-serif;font-weight:800;fill:#eef2ff}
.muted{font-family:Arial,Helvetica,sans-serif;font-weight:700;fill:#a5b4fc}
.purple{font-family:Arial Black,Arial,sans-serif;font-weight:900;fill:#b45cff}
.orange{font-family:Arial Black,Arial,sans-serif;font-weight:900;fill:#ffb703}
.dark{font-family:Arial Black,Arial,sans-serif;font-weight:900;fill:#080816}
.small{font-family:Arial,Helvetica,sans-serif;font-weight:900;fill:#fff}
</style><defs>
      <linearGradient id="bg" x1="0" y1="0" x2="1" y2="1"><stop offset="0" stop-color="#03030b"/><stop offset="0.42" stop-color="#0b1025"/><stop offset="1" stop-color="#2b075e"/></linearGradient>
      <radialGradient id="violet" cx="50%" cy="50%" r="50%"><stop offset="0" stop-color="#b45cff" stop-opacity=".9"/><stop offset="1" stop-color="#b45cff" stop-opacity="0"/></radialGradient>
      <linearGradient id="sunset" x1="0" y1="0" x2="0" y2="1"><stop offset="0" stop-color="#7c3aed"/><stop offset=".55" stop-color="#f97316"/><stop offset="1" stop-color="#111827"/></linearGradient>
      <linearGradient id="panel" x1="0" y1="0" x2="1" y2="1"><stop offset="0" stop-color="#17122d"/><stop offset="1" stop-color="#050713"/></linearGradient>
      <filter id="shadow" x="-30%" y="-30%" width="170%" height="170%"><feDropShadow dx="0" dy="24" stdDeviation="26" flood-color="#000" flood-opacity=".58"/></filter>
      <filter id="glow" x="-40%" y="-40%" width="180%" height="180%"><feGaussianBlur stdDeviation="42"/></filter>
      <filter id="neon" x="-30%" y="-30%" width="160%" height="160%"><feDropShadow dx="0" dy="0" stdDeviation="10" flood-color="#b45cff" flood-opacity=".9"/></filter>
    </defs><rect width="100%" height="100%" fill="url(#bg)"/>
      <circle cx="1998.0" cy="506.25" r="702.0" fill="url(#violet)" filter="url(#glow)" opacity=".88"/>
      <circle cx="351.0" cy="1680.75" r="594.0" fill="#7c3aed" filter="url(#glow)" opacity=".32"/>
      <path d="M0,1741.5 C621.0,1539.0 1485.0000000000002,1944.0 2700,1579.5 L2700,2025 L0,2025Z" fill="#050713" opacity=".78"/><rect x="70" y="54" width="720" height="68" rx="34" fill="#0a0a18" stroke="#7c3aed" stroke-width="2"/>
      <text x="108" y="99" class="small" font-size="28">DIGITAL DOWNLOAD  |  LAUNCH OFFER </text>
      <text x="665" y="99" class="orange" font-size="30">$14.99</text><text x="92" y="285" class="ai" font-size="112">FAQ + GUARANTEE</text><text x="96" y="380" class="body" font-size="42">Clear buying confidence for digital-product shoppers</text><g filter="url(#shadow)"><rect x="150" y="540" width="2400" height="760" rx="24" fill="url(#panel)" stroke="#b45cff" stroke-width="3"/><text x="178" y="595" class="small" font-size="44">Before You Buy</text><text x="178" y="640" class="muted" font-size="24">Is this physical? No — instant digital download.</text><text x="178" y="676" class="muted" font-size="24">Do I need design skills? No — beginner friendly.</text><text x="178" y="712" class="muted" font-size="24">Can I customize it? Yes — copy and edit the prompts/templates.</text><text x="178" y="748" class="muted" font-size="24">Does it guarantee income? No — it gives a planning system.</text></g><g filter="url(#shadow)"><rect x="430" y="1390" width="760" height="170" rx="24" fill="url(#panel)" stroke="#facc15" stroke-width="3"/><text x="458" y="1445" class="small" font-size="30">7-Day Money Back</text><text x="458" y="1490" class="muted" font-size="24">Buyer-friendly confidence badge</text></g><g filter="url(#shadow)"><rect x="1510" y="1390" width="760" height="170" rx="24" fill="url(#panel)" stroke="#facc15" stroke-width="3"/><text x="1538" y="1445" class="small" font-size="30">One-Time Payment</text><text x="1538" y="1490" class="muted" font-size="24">No subscription required</text></g><rect x="0" y="1855" width="2700" height="170" fill="#070716"/>
      <rect x="88" y="1893" width="420" height="88" rx="44" fill="#b45cff" filter="url(#neon)"/><text x="142" y="1951" class="small" font-size="38">50% OFF TODAY</text>
      <text x="650" y="1963" class="orange" font-size="76">$14.99</text><text x="940" y="1957" class="muted" font-size="38">$29.99</text><line x1="936" y1="1943" x2="1084" y2="1921" stroke="#a5b4fc" stroke-width="5"/>
      <rect x="2080" y="1899" width="505" height="78" rx="39" fill="#0b1025" stroke="#facc15" stroke-width="3"/><text x="2118" y="1950" class="orange" font-size="30">7-DAY MONEY BACK GUARANTEE ★★★★★</text></svg>