<svg xmlns="http://www.w3.org/2000/svg" width="1000" height="1500" viewBox="0 0 1000 1500"><style>
.h1{font-family:Arial Black,Arial,sans-serif;font-weight:900;letter-spacing:-5px;fill:#fff}
.ai{font-family:Arial Black,Arial,sans-serif;font-weight:900;letter-spacing:-5px;fill:#b45cff}
.h2{font-family:Arial Black,Arial,sans-serif;font-weight:900;fill:#fff}
.body{font-family:Arial,Helvetica,sans-serif;font-weight:800;fill:#eef2ff}
.muted{font-family:Arial,Helvetica,sans-serif;font-weight:700;fill:#a5b4fc}
.purple{font-family:Arial Black,Arial,sans-serif;font-weight:900;fill:#b45cff}
.orange{font-family:Arial Black,Arial,sans-serif;font-weight:900;fill:#ffb703}
.dark{font-family:Arial Black,Arial,sans-serif;font-weight:900;fill:#080816}
.small{font-family:Arial,Helvetica,sans-serif;font-weight:900;fill:#fff}
</style><defs>
      <linearGradient id="bg" x1="0" y1="0" x2="1" y2="1"><stop offset="0" stop-color="#03030b"/><stop offset="0.42" stop-color="#0b1025"/><stop offset="1" stop-color="#2b075e"/></linearGradient>
      <radialGradient id="violet" cx="50%" cy="50%" r="50%"><stop offset="0" stop-color="#b45cff" stop-opacity=".9"/><stop offset="1" stop-color="#b45cff" stop-opacity="0"/></radialGradient>
      <linearGradient id="sunset" x1="0" y1="0" x2="0" y2="1"><stop offset="0" stop-color="#7c3aed"/><stop offset=".55" stop-color="#f97316"/><stop offset="1" stop-color="#111827"/></linearGradient>
      <linearGradient id="panel" x1="0" y1="0" x2="1" y2="1"><stop offset="0" stop-color="#17122d"/><stop offset="1" stop-color="#050713"/></linearGradient>
      <filter id="shadow" x="-30%" y="-30%" width="170%" height="170%"><feDropShadow dx="0" dy="24" stdDeviation="26" flood-color="#000" flood-opacity=".58"/></filter>
      <filter id="glow" x="-40%" y="-40%" width="180%" height="180%"><feGaussianBlur stdDeviation="42"/></filter>
      <filter id="neon" x="-30%" y="-30%" width="160%" height="160%"><feDropShadow dx="0" dy="0" stdDeviation="10" flood-color="#b45cff" flood-opacity=".9"/></filter>
    </defs><rect width="100%" height="100%" fill="url(#bg)"/>
      <circle cx="740.0" cy="375.0" r="260.0" fill="url(#violet)" filter="url(#glow)" opacity=".88"/>
      <circle cx="130.0" cy="1245.0" r="220.0" fill="#7c3aed" filter="url(#glow)" opacity=".32"/>
      <path d="M0,1290.0 C230.0,1140.0 550.0,1440.0 1000,1170.0 L1000,1500 L0,1500Z" fill="#050713" opacity=".78"/><rect x="70" y="54" width="720" height="68" rx="34" fill="#0a0a18" stroke="#7c3aed" stroke-width="2"/>
      <text x="108" y="99" class="small" font-size="28">DIGITAL DOWNLOAD  |  LAUNCH OFFER </text>
      <text x="665" y="99" class="orange" font-size="30">$14.99</text><text x="62" y="210" class="ai" font-size="72">X</text><text x="62" y="296" class="h1" font-size="72">POST TEMPLATES</text><text x="66" y="407" class="body" font-size="30">50 creator frameworks</text><g filter="url(#shadow)"><rect x="65" y="500" width="870" height="320" rx="24" fill="url(#panel)" stroke="#b45cff" stroke-width="3"/><text x="93" y="555" class="small" font-size="34">Included</text><text x="93" y="600" class="muted" font-size="24">100 AI Prompts</text><text x="93" y="636" class="muted" font-size="24">50 X Templates</text><text x="93" y="672" class="muted" font-size="24">30 YouTube Hooks</text><text x="93" y="708" class="muted" font-size="24">30 IG Captions</text></g><g filter="url(#shadow)">
      <rect x="95" y="895" width="300" height="385" rx="22" fill="#f8fafc"/>
      <rect x="121" y="921" width="248" height="333" rx="18" fill="#0b1025"/>
      <rect x="145" y="1085" width="200" height="85" rx="20" fill="url(#sunset)"/>
      <circle cx="296.0" cy="1165" r="62" fill="#facc15" opacity=".7"/>
      <circle cx="251.0" cy="1090" r="54" fill="#050713"/><rect x="239.0" y="1135" width="90" height="135" rx="38" fill="#050713"/>
      <text x="143" y="985" class="ai" font-size="42">AI</text><text x="215" y="985" class="small" font-size="40">CREATOR KIT</text>
      <text x="143" y="1035" class="muted" font-size="22">Launch Your Content Brand Faster</text>
      <rect x="145" y="1198" width="200" height="48" rx="24" fill="#b45cff"/>
      <text x="191" y="1230" class="small" font-size="22">INSTANT DOWNLOAD</text>
    </g><g filter="url(#shadow)">
      <rect x="415" y="980" width="455" height="250" rx="26" fill="#0b1025" stroke="#4c1d95" stroke-width="5"/>
      <rect x="450" y="1028" width="385" height="155" rx="18" fill="#111827"/>
      <text x="485" y="1085" class="small" font-size="26">Creator OS Dashboard</text>
      <rect x="485" y="1125" width="315" height="74" rx="16" fill="#2b075e"/><text x="510" y="1172" class="purple" font-size="26">Today’s Focus: Plan → Create → Post</text>
      <rect x="485" y="1230" width="142.5" height="116" rx="18" fill="#172554"/><text x="510" y="1295" class="small" font-size="24">Content Pipeline</text>
      <rect x="652.5" y="1230" width="142.5" height="116" rx="18" fill="#312e81"/><text x="682.5" y="1295" class="small" font-size="24">Content Calendar</text>
      <rect x="495" y="1220" width="295" height="34" rx="17" fill="#0f172a"/>
    </g><g filter="url(#shadow)"><rect x="715" y="850" width="190" height="330" rx="42" fill="#030712" stroke="#64748b" stroke-width="6"/>
      <rect x="740" y="908" width="140" height="238" rx="28" fill="#111827"/>
      <text x="760" y="970" class="small" font-size="22">Social Post</text>
      <rect x="760" y="1005" width="100" height="108" rx="18" fill="#2b075e"/><text x="779" y="1065" class="purple" font-size="24">Hook + Caption</text>
      <rect x="760" y="1145" width="100" height="30" rx="12" fill="#334155"/><rect x="760" y="1195" width="60" height="30" rx="12" fill="#334155"/>
    </g><rect x="65" y="1378" width="410" height="74" rx="37" fill="#b45cff" filter="url(#neon)"/><text x="112" y="1426" class="small" font-size="30">GET THE KIT</text><text x="575" y="1428" class="orange" font-size="44">$14.99</text></svg>